<svg xmlns="http://www.w3.org/2000/svg" viewBox="140 375 820 270" fill="white"><path d="M479.52,562.16l10.54,23.49H486.9l-2.31-5.17H471.17l-2.29,5.17H465.7l10.53-23.49Zm-1.64,3-5.57,12.68h11.14Z"/><path d="M493.75,562.12h8.55c8,0,11.81,5.71,11.81,11.51,0,6-3.59,12-11.81,12h-8.55V562.12ZM511.2,573.6c0-4.36-2.89-8.66-8.9-8.66h-5.63v17.79h5.63C508.54,582.73,511.2,578.1,511.2,573.6Z"/><path d="M518.81,562.16l8,20.06,8.09-20.06h3.22l-9.7,23.55h-3.15l-9.73-23.55Z"/><path d="M563.44,574c0,6.14-3.86,12.15-11.91,12.15s-11.95-6-11.95-12.15c0-6.81,4.56-12.21,12-12.21C559.51,561.79,563.47,567.76,563.44,574Zm-11.88-9.53c-6,0-9.06,4.4-9.06,9.53,0,4.76,2.88,9.39,9.06,9.39s9-4.76,9-9.39S557.7,564.51,551.56,564.44Z"/><path d="M579,586c-8.28,0-12.21-5.74-12.24-12s4-12.25,12.24-12.25a12.16,12.16,0,0,1,8.59,3.52l-2,1.88a9.3,9.3,0,0,0-6.58-2.62c-6.3,0-9.36,4.57-9.32,9.43s3,9.23,9.32,9.23a9.58,9.58,0,0,0,6.68-2.72l2.05,2A12.31,12.31,0,0,1,579,586Z"/><path d="M603.13,562.16l10.54,23.49h-3.16l-2.31-5.17H594.77l-2.28,5.17H589.3l10.54-23.49Zm-1.65,3-5.57,12.68h11.14Z"/><path d="M627.25,586C619,586,615,580.28,615,574s4-12.25,12.24-12.25a12.16,12.16,0,0,1,8.59,3.52l-2,1.88a9.3,9.3,0,0,0-6.58-2.62c-6.3,0-9.36,4.57-9.32,9.43s3,9.23,9.32,9.23a9.58,9.58,0,0,0,6.68-2.72l2.05,2A12.32,12.32,0,0,1,627.25,586Z"/><path d="M640.27,562.16h2.92v23.49h-2.92Z"/><path d="M660.7,562.16l10.54,23.49h-3.15l-2.32-5.17H652.35l-2.28,5.17h-3.19l10.54-23.49Zm-1.64,3-5.57,12.68h11.14Z"/><path d="M682.48,562.16H699v2.68H685.37v7.35h13v2.72h-13v8h14.16v2.79h-17Z"/><path d="M712.21,564.27c-3,0-6.18,1.18-6.18,4,0,2.55,2.92,3.29,6.38,3.86,4.7.74,9.33,1.68,9.33,7s-5.07,7-9.57,7c-4.16,0-8.12-1.51-9.93-5.44l2.42-1.41a8.52,8.52,0,0,0,7.55,4.13c2.85,0,6.64-.91,6.64-4.36,0-2.92-3.25-3.76-6.78-4.3-4.53-.7-8.92-1.74-8.92-6.51s4.93-6.58,9-6.58c3.49,0,6.81.71,8.89,4.27l-2.21,1.37C717.54,565.25,714.82,564.31,712.21,564.27Z"/><path d="M729.25,585.65h-2.89V562.16H737c10.8,0,10.8,15.87,0,15.9h-7.79ZM737,564.88h-7.79v10.46H737C744,575.34,744,564.88,737,564.88Z"/><path d="M749.31,562.16h16.51v2.68H752.2v7.35h13v2.72h-13v8h14.16v2.79H749.31Z"/><path d="M781.69,586c-8.28,0-12.21-5.74-12.24-12s4-12.25,12.24-12.25a12.14,12.14,0,0,1,8.59,3.52l-2,1.88a9.3,9.3,0,0,0-6.58-2.62c-6.3,0-9.36,4.57-9.32,9.43s3,9.23,9.32,9.23a9.58,9.58,0,0,0,6.68-2.72l2,2A12.31,12.31,0,0,1,781.69,586Z"/><path d="M794.71,562.16h2.92v23.49h-2.92Z"/><path d="M815.15,562.16l10.53,23.49h-3.15l-2.32-5.17H806.79l-2.28,5.17h-3.19l10.54-23.49Zm-1.65,3-5.57,12.68h11.14Z"/><path d="M832.29,582.93h12.78v2.72h-15.7V562.16h2.92Z"/><path d="M848.8,562.16h2.92v23.49H848.8Z"/><path d="M873.9,562.16v1.27L860,582.83H873.9v2.82H855.84v-1.58l13.66-19.19h-13v-2.72Z"/><path d="M889.6,562.16l10.53,23.49H897l-2.32-5.17H881.24L879,585.65h-3.19l10.54-23.49Zm-1.65,3-5.57,12.68h11.14Z"/><path d="M903.82,562.12h8.56c8,0,11.81,5.71,11.81,11.51,0,6-3.59,12-11.81,12h-8.56V562.12Zm17.45,11.48c0-4.36-2.88-8.66-8.89-8.66h-5.64v17.79h5.64C918.62,582.73,921.27,578.1,921.27,573.6Z"/><path d="M939.25,562.16l10.54,23.49h-3.15l-2.32-5.17H930.9l-2.28,5.17h-3.19L936,562.16Zm-1.64,3L932,577.79h11.14Z"/><path d="M402,509.12c0,11.65.32,16.72,1.74,18.15,1.27,1.27,3.33,1.82,9.51,1.82,4.2,0,7.69-.07,9.59-2.37a11,11,0,0,0,2.06-4.76c.08-.63.24-1,.72-1s.47.32.47,1.19a50,50,0,0,1-1.19,7.93c-.55,1.82-.79,2.14-5,2.14-6.82,0-13.55-.48-21.24-.48-2.46,0-4.83.24-7.77.24-.87,0-1.26-.16-1.26-.64,0-.23.15-.47.63-.47a12.25,12.25,0,0,0,2.38-.32c1.58-.32,2-2.06,2.3-4.36.39-3.33.39-9.59.39-17.2V495c0-12.37,0-14.59-.16-17.12-.16-2.7-.79-4-3.4-4.52a14.82,14.82,0,0,0-2.7-.24c-.32,0-.63-.16-.63-.47,0-.48.39-.64,1.26-.64,3.57,0,8.56.24,9,.24s6.18-.24,8.56-.24c.87,0,1.27.16,1.27.64,0,.31-.32.47-.64.47a18.43,18.43,0,0,0-2.61.24c-2.3.4-2.93,1.74-3.09,4.52-.16,2.53-.16,4.75-.16,17.12Z"/><path d="M442.28,509.92c0,9.66,1.82,13.79,4.83,16.48a15.13,15.13,0,0,0,10.47,3.65c4.12,0,7.84-1.11,10.85-4.6,3.17-3.65,3.89-9.67,3.89-16.57v-8.4c0-10.38,0-12.2-.16-14.34-.16-2.3-.4-3.49-2.93-3.88a18.21,18.21,0,0,0-2.22-.16c-.48,0-.8-.24-.8-.48,0-.47.4-.63,1.11-.63,3.41,0,7.37.24,7.69.24s3.81-.24,6-.24c.8,0,1.11.16,1.11.55s-.31.56-.79.56a10.59,10.59,0,0,0-1.42.08c-2.22.23-2.54,1.66-2.7,4-.08,2.14-.08,4-.08,14.34v7.06c0,7.13-.79,15.69-6.42,20.52-5.15,4.36-10.22,4.76-14.5,4.76-2.22,0-9.67,0-14.82-4.76-3.41-3.17-5.87-7.92-5.87-17.75v-9.83c0-10.46,0-12.28-.23-14.42-.08-2.14-.48-3.49-2.94-3.8a15.28,15.28,0,0,0-2.06-.16c-.55,0-.87-.24-.87-.48,0-.47.32-.63,1.19-.63,3.41,0,7.69.24,8.24.24s5.31-.24,7.45-.24c.87,0,1.11.16,1.11.55s-.55.56-.95.56a15.38,15.38,0,0,0-1.74.16c-1.91.23-2.22,1.58-2.38,3.8s-.08,4-.08,14.42Z"/><path d="M500.85,512.61a.84.84,0,0,0-.8.63l-3.48,9.91a19.77,19.77,0,0,0-1.35,5.63c0,1.42.87,2.06,2.61,2.06h.56c.71,0,.95.24.95.55s-.63.56-1.19.56c-1.74,0-5.39-.24-6.26-.24s-4.28.24-7.61.24c-.87,0-1.27-.16-1.27-.56s.32-.55,1-.55a11.06,11.06,0,0,0,1.58-.08c3.41-.32,4.76-2.93,6.1-6.26l15.85-41.77c.87-2.3,1.11-2.69,1.67-2.69.39,0,.71.31,1.58,2.53,1.11,2.62,11.89,30.28,16.09,40.18,2.62,6.27,4.91,7.3,6,7.69a7.51,7.51,0,0,0,2.7.4c.55,0,1,.16,1,.55s-.32.56-1.19.56-6.74,0-12.05-.16c-1.5-.08-2-.16-2-.56,0-.23.24-.47.56-.55s.79-.56.32-1.74L515.9,513a.69.69,0,0,0-.63-.4Zm13.47-2.77c.32,0,.32-.24.24-.48l-6.26-17.51c-.4-1.11-.48-1.11-.88,0l-5.94,17.51c-.16.32,0,.48.16.48Z"/><path d="M544,483.29c0-2.46.24-3.25.87-3.25s1.9,1.58,2.46,2.14c.71.79,11.73,12,22.82,23.38,6.18,6,14.11,14.18,16.17,16.08l-.87-33c-.08-4.28-.56-5.71-2.7-6.27a20.53,20.53,0,0,0-3.09-.31c-.79,0-1-.32-1-.64s.63-.47,1.43-.47c3.41,0,6.73.24,7.45.24s3.25-.24,6.34-.24c.87,0,1.11.08,1.11.47s-.24.56-.72.64-1.11.08-2,.23c-1.82.4-2.38,1.19-2.38,5.95l-.15,39.78c0,4-.16,4.36-.72,4.36s-1.34-.55-5.23-4.2c-.31-.16-11.33-11.09-18.23-17.83l-18.15-18.86,1,31c.15,5.47.63,7.53,2.61,8a13.62,13.62,0,0,0,3.25.32c.63,0,1,.24,1,.55s-.4.56-1.27.56c-4.28,0-7.13-.24-7.68-.24s-3.49.24-6.9.24c-.71,0-1.19-.08-1.19-.56,0-.31.32-.55,1.11-.55a7.85,7.85,0,0,0,2.46-.32c1.74-.55,2.14-2.69,2.14-8.48C544,484.24,544.12,496.44,544,483.29Z"/><path d="M605.91,495.34c0-12.37,0-14.59-.15-17.12-.16-2.7-.8-4-3.41-4.52a14,14,0,0,0-2.3-.24c-.71,0-1-.16-1-.47,0-.48.4-.64,1.27-.64,3.56,0,8.56.24,9,.24,1.91,0,5-.24,8.64-.24,13,0,15.85,7.93,15.85,11.89,0,6.5-3.72,10.38-7.45,14.27C632.15,500.33,640,506,640,515.23c0,8.48-6.65,17.28-20.21,17.28-.87,0-3.4-.16-5.7-.24s-4.52-.24-4.84-.24c-2.53,0-5,.24-7.76.24-.88,0-1.27-.16-1.27-.56,0-.23.16-.55,1.19-.55a8.24,8.24,0,0,0,1.9-.24c1.58-.31,1.9-2.14,2.22-4.44.39-3.32.39-9.59.39-17.19Zm6.34,1.74c0,.56.16.71.56.87a27.64,27.64,0,0,0,4.83.32c4.44,0,5.55-.16,7.22-2.06a12.28,12.28,0,0,0,2.85-8c0-6.57-2.93-13.63-10.7-13.63a17.48,17.48,0,0,0-3.8.4c-.72.16-1,.4-1,.87Zm0,8.4c0,6.1,0,15.93.08,17.12.24,3.88.24,5,2.7,6.18a18.65,18.65,0,0,0,7,1.19c4.28,0,11.18-2.3,11.18-11.25,0-4.76-1.59-11.65-7.69-15.85a13.06,13.06,0,0,0-6.58-2.3c-1-.16-5-.16-6.18-.16-.32,0-.48.16-.48.55Z"/><path d="M661.39,512.93c-.4,0-.63.24-.79.64l-3.49,9.9a20.12,20.12,0,0,0-1.35,5.63c0,1.43.88,2.06,2.62,2.06h.55c.72,0,1,.24,1,.55s-.64.56-1.19.56c-1.75,0-5.39-.24-6.26-.24s-4.28.24-7.61.24c-.87,0-1.27-.16-1.27-.56s.32-.55,1-.55a10.93,10.93,0,0,0,1.58-.08c3.41-.32,4.76-2.93,6.11-6.26l15.85-41.77c.87-2.3,1.11-2.69,1.66-2.69.4,0,.72.32,1.59,2.53,1.11,2.62,11.89,30.28,16.09,40.19,2.61,6.26,4.91,7.29,6,7.68a7.48,7.48,0,0,0,2.69.4c.56,0,1,.16,1,.55s-.32.56-1.19.56-6.74,0-12-.16c-1.51-.08-2-.16-2-.55a.67.67,0,0,1,.55-.56c.32-.16.8-.55.32-1.74l-6.26-15.93a.71.71,0,0,0-.64-.4Zm13.47-2.77c.32,0,.32-.24.24-.48l-6.26-17.51c-.4-1.11-.48-1.11-.87,0l-6,17.51c-.15.32,0,.48.16.48Z"/><path d="M706.8,500.81c0-10.47,0-12.37-.16-14.51s-.71-3.33-3.17-3.8a12.86,12.86,0,0,0-1.9-.16c-.55,0-.87-.16-.87-.48s.24-.55.95-.55c3.41,0,8.24.24,8.4.24.71,0,6.1-.24,8.32-.24,4.44,0,9.28.4,13,3a12,12,0,0,1,4.76,9.67c0,4.36-2.14,9.91-8.41,15,5.79,7.13,10.55,13,14.59,17.2,3.8,3.88,6.18,4.51,8.4,4.83.55.08,2.22.16,2.45.16.64,0,.88.24.88.55s-.32.56-1.43.56h-5.55c-3.72,0-5.47-.24-7.21-.95-3.33-1.43-5.71-5-9.83-10.3-3.09-3.81-6.26-8.09-7.61-9.75a1.11,1.11,0,0,0-.95-.48l-8.16-.08c-.32,0-.4.08-.4.4v1.11c0,6.34,0,12.12.4,15,.24,1.9.48,3.48,3.09,3.8.79.08,1.67.16,2.3.16s1,.24,1,.48-.32.63-1.11.63c-4.12,0-8.56-.24-8.88-.24-1.26,0-4.75.24-6.89.24-.79,0-1.11-.16-1.11-.63,0-.24.48-.48.95-.48a6.68,6.68,0,0,0,1.74-.16c1.35-.24,1.83-1.11,2.06-3,.4-2.85.32-9.35.32-15.3Zm6.1,5.62c0,.4.08.8.4.95,1,.56,4.2,1,7.05,1a9.36,9.36,0,0,0,5.31-1.18c2.38-1.51,4-5,4-10.07,0-8.64-4.6-13.39-11.65-13.39a21.26,21.26,0,0,0-4.6.39.73.73,0,0,0-.48.72Z"/><path d="M758.16,500.81c0-10.39,0-12.37-.16-14.51s-.71-3.25-3.09-3.72c-.64-.08-1.75-.16-1.9-.16-.72,0-1-.24-1-.56s.47-.55,1.18-.55c3.33,0,8.09.24,8.25.24,1.9,0,4.51-.24,7.61-.24,11.88,0,14.26,6.58,14.26,10,0,5.86-3.33,9.59-6.66,12.2,5.31,1.59,12.13,6.42,12.13,14.19,0,7.37-5.94,14.74-18,14.74-1.27,0-2.85-.16-4.92-.16-2.21-.16-4.12-.24-4.43-.24-2.46,0-4.52.24-7.14.24-.71,0-1.11-.16-1.11-.48s.08-.63,1.11-.63a4.58,4.58,0,0,0,1.43-.16c1.35-.24,1.82-1.9,2.06-3.8a139.59,139.59,0,0,0,.4-14.51Zm6.18,1.42c0,.56.16.64.39.8a22.87,22.87,0,0,0,4,.23c4,0,5.23-.23,6.73-1.9a9.79,9.79,0,0,0,2.06-6.34c0-5.47-2.45-11.57-9.19-11.57a13.55,13.55,0,0,0-3,.4c-.71.15-.95.31-.95.71Zm0,6.82c0,5,0,13.71.08,14.34.24,3.49.16,4.52,2.53,5.55a15.69,15.69,0,0,0,5.87,1c3.41,0,9.35-1.66,9.35-9,0-4-1.43-10.15-6.81-13.79a11.07,11.07,0,0,0-5.39-1.75,28.63,28.63,0,0,0-5.24,0c-.23,0-.39.08-.39.48Z"/><path d="M798.42,506.67c0-10.54,8.16-26.31,27.73-26.31,15.7,0,27.66,9.35,27.66,25.28,0,15.14-11.17,27.5-28,27.5C806.34,533.14,798.42,518.72,798.42,506.67Zm47.94.95c0-15.93-9.82-24.8-20.68-24.8-11,0-19.89,6.81-19.89,21.79,0,15.53,8.63,25.84,22,25.84C833.05,530.45,846.36,527.75,846.36,507.62Z"/><path d="M866,531.4c-1-.48-1-.79-1-2.7,0-3.64.24-6.34.32-7.45.08-.71.23-1.11.63-1.11s.55.24.55.8a9.72,9.72,0,0,0,.24,2.37c1,5.16,5.71,7.14,10.31,7.14,6.57,0,9.74-4.52,9.74-8.48,0-4.52-2.06-7.29-7.84-12l-3.17-2.46c-7.61-6.1-9.2-10.3-9.2-15,0-7.29,5.79-12.2,14.67-12.2a28,28,0,0,1,6.41.63,13.1,13.1,0,0,0,2.7.4c.55,0,.71.16.71.47s-.31,3.1-.31,7.69c0,1.19-.16,1.67-.56,1.67s-.47-.32-.55-.88a10.71,10.71,0,0,0-.95-3.72c-.4-.71-2.22-3.73-8.88-3.73-4.76,0-8.32,2.86-8.32,7.61,0,3.73,1.9,6,8.48,11l1.82,1.43c8.24,6.34,10.38,10.54,10.38,16.16a13.92,13.92,0,0,1-6,11.26,19.83,19.83,0,0,1-10.7,2.77A22.54,22.54,0,0,1,866,531.4Z"/><path d="M915.47,512.93c-.4,0-.63.24-.79.64l-3.49,9.9a20.12,20.12,0,0,0-1.35,5.63c0,1.43.88,2.06,2.62,2.06H913c.72,0,1,.24,1,.55s-.63.56-1.18.56c-1.75,0-5.39-.24-6.27-.24s-4.28.24-7.6.24c-.88,0-1.27-.16-1.27-.56s.32-.55,1-.55a10.93,10.93,0,0,0,1.58-.08c3.41-.32,4.76-2.93,6.11-6.26l15.85-41.77c.87-2.3,1.11-2.69,1.66-2.69s.72.32,1.59,2.53c1.11,2.62,11.89,30.28,16.09,40.19,2.61,6.26,4.91,7.29,6,7.68a7.48,7.48,0,0,0,2.69.4c.56,0,1,.16,1,.55s-.31.56-1.18.56-6.74,0-12.05-.16c-1.51-.08-2-.16-2-.55a.67.67,0,0,1,.55-.56c.32-.16.8-.55.32-1.74l-6.26-15.93a.71.71,0,0,0-.64-.4Zm13.47-2.77c.32,0,.32-.24.24-.48l-6.26-17.51c-.4-1.11-.48-1.11-.87,0l-5.95,17.51c-.15.32,0,.48.16.48Z"/><path d="M220.82,520.19c0,20.69.56,29.7,3.09,32.23,2.25,2.26,5.91,3.24,16.89,3.24,7.46,0,13.65-.14,17-4.22a19.57,19.57,0,0,0,3.66-8.45c.14-1.12.42-1.83,1.27-1.83s.84.57.84,2.11a89.34,89.34,0,0,1-2.11,14.08c-1,3.24-1.41,3.8-8.87,3.8-12.1,0-24.06-.84-37.72-.84-4.36,0-8.58.42-13.79.42-1.55,0-2.25-.29-2.25-1.13,0-.42.28-.84,1.13-.84a21.18,21.18,0,0,0,4.22-.57c2.81-.56,3.52-3.66,4.08-7.74.7-5.91.7-17,.7-30.54V495.14c0-22,0-25.9-.28-30.4-.28-4.79-1.41-7-6.05-8a25.6,25.6,0,0,0-4.78-.43c-.57,0-1.13-.28-1.13-.84,0-.85.7-1.13,2.25-1.13,6.33,0,15.2.42,15.9.42s11-.42,15.21-.42c1.54,0,2.25.28,2.25,1.13,0,.56-.57.84-1.13.84a32,32,0,0,0-4.64.43c-4.09.7-5.21,3.09-5.49,8-.28,4.5-.28,8.44-.28,30.4Z"/><path d="M271.86,495.14c0-22,0-25.9-.28-30.4-.28-4.79-1.41-7-6.06-8a24.09,24.09,0,0,0-4.08-.43c-1.26,0-1.83-.28-1.83-.84,0-.85.71-1.13,2.25-1.13,6.34,0,15.21.42,15.91.42,3.38,0,8.87-.42,15.34-.42,23.08,0,28.15,14.08,28.15,21.12,0,11.54-6.62,18.43-13.23,25.33,10.41,3.24,24.35,13.23,24.35,29.7,0,15.06-11.82,30.68-35.89,30.68-1.55,0-6.05-.28-10.13-.42s-8-.42-8.59-.42c-4.51,0-8.87.42-13.79.42-1.55,0-2.26-.29-2.26-1,0-.42.29-1,2.12-1a14.28,14.28,0,0,0,3.37-.43c2.82-.56,3.38-3.8,3.94-7.88.71-5.91.71-17,.71-30.54Zm11.26,3.1c0,1,.28,1.26,1,1.54a49.53,49.53,0,0,0,8.59.57c7.88,0,9.85-.28,12.81-3.66a21.8,21.8,0,0,0,5.06-14.22c0-11.68-5.2-24.21-19-24.21a31,31,0,0,0-6.75.71c-1.27.28-1.69.7-1.69,1.55Zm0,14.91c0,10.84,0,28.3.14,30.41.42,6.89.42,8.86,4.78,11,3.8,1.84,9.86,2.11,12.39,2.11,7.6,0,19.84-4.08,19.84-20,0-8.45-2.81-20.69-13.65-28.15a23.18,23.18,0,0,0-11.68-4.08c-1.83-.28-8.87-.28-11-.28-.56,0-.84.28-.84,1Z"/><path d="M281.71,633.63a122.51,122.51,0,0,1-48.87-8.25,126.33,126.33,0,0,1-70.38-68.59,127.31,127.31,0,0,1,0-98.8,126,126,0,0,1,70.39-68.6,122.33,122.33,0,0,1,48.87-8.24,130.78,130.78,0,0,0-47.75,11,127.5,127.5,0,0,0-39.85,27.67,130.86,130.86,0,0,0-15.18,18.94,125.59,125.59,0,0,0-11.24,115.9A126.16,126.16,0,0,0,194.1,595,127.57,127.57,0,0,0,234,622.68,130.77,130.77,0,0,0,281.71,633.63Z"/><path d="M327,625.94l-4.49-3.33a15.41,15.41,0,0,0-2.76-5.17c-1.86-2.05-12.92-6.65-18.68-7.73,0,0,.24,10.75-7.26,11.27,0,0,5.56-4.4,4.05-14.75s-9.13-14.35-14.81-16.19-52.91-16.15-52.91-16.15,4.24,13.36,10.89,15.44c17.35,5.4,29.71,9,29.71,9a10.84,10.84,0,0,1,4.52,4.42L240,593s3.51,9.92,7.69,12.82l28.83,7.26s-.41,2-1.48,2.77l-26.87-6.69s3,10.63,11.89,14.61c0,0,7.3,3.08,12.64,3.4,0,0-10.41.66-16.3-2.73,0,0,3.55,10.16,19,9.88s22.65-5.4,31.36-5.44,18.36,2.56,22.07,5.23A18.2,18.2,0,0,0,327,625.94ZM316.9,621.5A4,4,0,0,1,316,620a17.88,17.88,0,0,1,2.49,1.07c.49.35.83,1.71.83,1.71A9.65,9.65,0,0,1,316.9,621.5Z"/></svg>